<svg width="15" height="19" viewBox="0 0 15 19" fill="none" xmlns="http://www.w3.org/2000/svg">
<path d="M12.432 9.168C13.264 9.584 13.896 10.128 14.328 10.8C14.776 11.472 15 12.248 15 13.128C15 14.168 14.704 15.08 14.112 15.864C13.52 16.632 12.688 17.232 11.616 17.664C10.544 18.08 9.304 18.288 7.896 18.288C6.488 18.288 5.248 18.08 4.176 17.664C3.12 17.232 2.296 16.632 1.704 15.864C1.128 15.08 0.84 14.168 0.84 13.128C0.84 12.248 1.056 11.472 1.488 10.8C1.936 10.128 2.568 9.584 3.384 9.168C2.76 8.784 2.28 8.304 1.944 7.728C1.608 7.136 1.44 6.464 1.44 5.712C1.44 4.736 1.712 3.888 2.256 3.168C2.8 2.448 3.56 1.896 4.536 1.512C5.512 1.112 6.632 0.912 7.896 0.912C9.176 0.912 10.304 1.112 11.28 1.512C12.272 1.896 13.04 2.448 13.584 3.168C14.128 3.888 14.4 4.736 14.4 5.712C14.4 6.464 14.232 7.136 13.896 7.728C13.56 8.304 13.072 8.784 12.432 9.168ZM7.896 3.768C7.112 3.768 6.48 3.96 6 4.344C5.536 4.712 5.304 5.224 5.304 5.88C5.304 6.52 5.536 7.024 6 7.392C6.464 7.76 7.096 7.944 7.896 7.944C8.696 7.944 9.336 7.76 9.816 7.392C10.296 7.024 10.536 6.52 10.536 5.88C10.536 5.224 10.296 4.712 9.816 4.344C9.336 3.96 8.696 3.768 7.896 3.768ZM7.896 15.432C8.872 15.432 9.64 15.216 10.2 14.784C10.776 14.336 11.064 13.744 11.064 13.008C11.064 12.272 10.776 11.688 10.2 11.256C9.64 10.824 8.872 10.608 7.896 10.608C6.936 10.608 6.176 10.824 5.616 11.256C5.056 11.688 4.776 12.272 4.776 13.008C4.776 13.76 5.056 14.352 5.616 14.784C6.176 15.216 6.936 15.432 7.896 15.432Z" fill="#2963A3"/>
</svg>
